<svg xmlns="http://www.w3.org/2000/svg" xmlns:xlink="http://www.w3.org/1999/xlink" id="body_5" preserveAspectRatio="xMinYMin meet" viewBox="0 0 793 1121"><defs><clipPath id="1"><path id="" clip-rule="evenodd" transform="matrix(1 0 0 1 0 0)" d="M0 841L0 -0.8900146L0 -0.8900146L595.276 -0.8900146L595.276 -0.8900146L595.276 841L595.276 841L0 841z" /></clipPath><clipPath id="2"><path id="" clip-rule="evenodd" transform="matrix(1 0 0 1 0 0)" d="M392.88 -12.22998L595.28 -12.22998L595.28 -12.22998L595.28 44.46002L595.28 44.46002L392.88 44.46002z" /></clipPath><clipPath id="3"><path id="" clip-rule="evenodd" transform="matrix(1 0 0 1 0 0)" d="M324.28 -12.22998L411.02 -12.22998L411.02 -12.22998L411.02 44.46002L411.02 44.46002L324.28 44.46002z" /></clipPath><clipPath id="4"><path id="" clip-rule="evenodd" transform="matrix(1 0 0 1 0 0)" d="M392.88 795.65L595.28 795.65L595.28 795.65L595.28 852.34L595.28 852.34L392.88 852.34z" /></clipPath><clipPath id="5"><path id="" clip-rule="evenodd" transform="matrix(1 0 0 1 0 0)" d="M324.28 795.65L411.02 795.65L411.02 795.65L411.02 852.34L411.02 852.34L324.28 852.34z" /></clipPath></defs><g transform="matrix(1.333333 0 0 1.333333 0 0)"><g clip-path="url(#1)"><g clip-path="url(#2)"><path id="1" transform="matrix(1 0 0 -1 0 841)" d="M392.8821 853.2286L595.276 853.2286L595.276 796.5356L392.8821 796.5356z" stroke="none" fill="#213280" fill-rule="nonzero" /></g><g clip-path="url(#3)"><path id="2" transform="matrix(1 0 0 -1 0 841)" d="M324.2838 853.2286L411.024 853.2286L411.024 796.5356L324.2838 796.5356z" stroke="none" fill="#2A7EC4" fill-rule="nonzero" /></g><g transform="matrix(0.08599679 0 0 0.08599681 36.93543 121.0848)"><g transform="matrix(1 0 0 1 0 0)"><image x="0" y="0" xlink:href="img_03.png" width="1581" height="421" /></g></g><g transform="matrix(0.1960751 0 0 0.1960751 396.7629 78.56512)"><g transform="matrix(1 0 0 1 0 0)"><image x="0" y="0" xlink:href="img_22.png" width="1012" height="759" /></g></g><g transform="matrix(0.4517742 0 0 0.6635098 8.588976 248.6439)"><g transform="matrix(1 0 0 1 0 0)"><image x="0" y="0" xlink:href="img_23.png" width="1280" height="769" /></g></g><g clip-path="url(#4)"><path id="286" transform="matrix(1 0 0 -1 0 841)" d="M392.8821 45.35433L595.276 45.35433L595.276 -11.33858L392.8821 -11.33858z" stroke="none" fill="#213280" fill-rule="nonzero" /></g><g clip-path="url(#5)"><path id="295" transform="matrix(1 0 0 -1 0 841)" d="M324.2838 45.35433L411.024 45.35433L411.024 -11.33858L324.2838 -11.33858z" stroke="none" fill="#2A7EC4" fill-rule="nonzero" /></g></g></g></svg>