<svg xmlns="http://www.w3.org/2000/svg" xmlns:xlink="http://www.w3.org/1999/xlink" id="body_3" preserveAspectRatio="xMinYMin meet" viewBox="0 0 793 1121"><defs><clipPath id="1"><path id="" clip-rule="evenodd" transform="matrix(1 0 0 1 0 0)" d="M0 841L0 -0.8900146L0 -0.8900146L595.276 -0.8900146L595.276 -0.8900146L595.276 841L595.276 841L0 841z" /></clipPath><clipPath id="2"><path id="" clip-rule="evenodd" transform="matrix(1 0 0 1 0 0)" d="M36.85 92.65002L557.29 92.65002L557.29 92.65002L557.29 92.94L557.29 92.94L36.85 92.94z" /></clipPath><clipPath id="3"><path id="" clip-rule="evenodd" transform="matrix(1 0 0 1 0 0)" d="M38.44 141.61L69.95 141.61L69.95 141.61L69.95 168.79L69.95 168.79L38.44 168.79z" /></clipPath><clipPath id="4"><path id="" clip-rule="evenodd" transform="matrix(1 0 0 1 0 0)" d="M71.45 141.61L122.81 141.61L122.81 141.61L122.81 168.79L122.81 168.79L71.45 168.79z" /></clipPath><clipPath id="5"><path id="" clip-rule="evenodd" transform="matrix(1 0 0 1 0 0)" d="M124.31 141.61L221.03 141.61L221.03 141.61L221.03 168.79L221.03 168.79L124.31 168.79z" /></clipPath><clipPath id="6"><path id="" clip-rule="evenodd" transform="matrix(1 0 0 1 0 0)" d="M222.53 141.61L336.25 141.61L336.25 141.61L336.25 168.79L336.25 168.79L222.53 168.79z" /></clipPath><clipPath id="7"><path id="" clip-rule="evenodd" transform="matrix(1 0 0 1 0 0)" d="M337.75 141.61L369.27 141.61L369.27 141.61L369.27 168.79L369.27 168.79L337.75 168.79z" /></clipPath><clipPath id="8"><path id="" clip-rule="evenodd" transform="matrix(1 0 0 1 0 0)" d="M370.77 141.61L413.62 141.61L413.62 141.61L413.62 168.79L413.62 168.79L370.77 168.79z" /></clipPath><clipPath id="9"><path id="" clip-rule="evenodd" transform="matrix(1 0 0 1 0 0)" d="M415.12 141.61L483.49 141.61L483.49 141.61L483.49 168.79L483.49 168.79L415.12 168.79z" /></clipPath><clipPath id="10"><path id="" clip-rule="evenodd" transform="matrix(1 0 0 1 0 0)" d="M484.99 141.61L553.36 141.61L553.36 141.61L553.36 168.79L553.36 168.79L484.99 168.79z" /></clipPath><clipPath id="11"><path id="" clip-rule="evenodd" transform="matrix(1 0 0 1 0 0)" d="M36.94 765.03L557.38 765.03L557.38 765.03L557.38 765.65L557.38 765.65L36.94 765.65z" /></clipPath></defs><g transform="matrix(1.333333 0 0 1.333333 0 0)"><g clip-path="url(#1)"><g transform="matrix(0.1094766 0 0 0.1094766 48.83646 30.46118)"><g transform="matrix(1 0 0 1 0 0)"><image x="0" y="0" xlink:href="img_03.png" width="1581" height="421" /></g></g><g clip-path="url(#2)"><path id="67" transform="matrix(1 0 0 -1 0 841)" d="M36.8504 748.3467L557.2917 748.3467L557.2917 748.0632L36.8504 748.0632z" stroke="none" fill="#000000" fill-rule="nonzero" /></g><g clip-path="url(#3)"><path id="107" transform="matrix(1 0 0 -1 0 841)" d="M38.43543 699.3918L69.95291 699.3918L69.95291 672.209L38.43543 672.209z" stroke="none" fill="#213280" fill-rule="nonzero" /></g><path id="108" transform="matrix(1 0 0 -1 0 841)" d="M38.40709 672.1807L38.40709 672.9874L38.40709 698.6135L38.40709 699.4202L39.21378 698.6135L39.21378 672.9874L38.40709 672.1807L38.40709 672.9874" stroke="none" fill="#FFFFFF" fill-rule="nonzero" /><path id="109" transform="matrix(1 0 0 -1 0 841)" d="M38.40709 699.4202L39.21378 699.4202L69.17457 699.4202L69.98126 699.4202L69.17457 698.6135L39.21378 698.6135L38.40709 699.4202L39.21378 699.4202" stroke="none" fill="#FFFFFF" fill-rule="nonzero" /><path id="110" transform="matrix(1 0 0 -1 0 841)" d="M69.98126 699.4202L69.98126 698.6135L69.98126 672.9874L69.98126 672.1807L69.17457 672.9874L69.17457 698.6135L69.98126 699.4202L69.98126 698.6135" stroke="none" fill="#FFFFFF" fill-rule="nonzero" /><path id="111" transform="matrix(1 0 0 -1 0 841)" d="M69.98126 672.1807L69.17457 672.1807L39.21378 672.1807L38.40709 672.1807L39.21378 672.9874L69.17457 672.9874L69.98126 672.1807L69.17457 672.1807" stroke="none" fill="#FFFFFF" fill-rule="nonzero" /><g clip-path="url(#4)"><path id="116" transform="matrix(1 0 0 -1 0 841)" d="M71.45291 699.3918L122.8129 699.3918L122.8129 672.209L71.45291 672.209z" stroke="none" fill="#213280" fill-rule="nonzero" /></g><path id="117" transform="matrix(1 0 0 -1 0 841)" d="M71.42457 672.1807L71.42457 672.9874L71.42457 698.6135L71.42457 699.4202L72.23126 698.6135L72.23126 672.9874L71.42457 672.1807L71.42457 672.9874" stroke="none" fill="#FFFFFF" fill-rule="nonzero" /><path id="118" transform="matrix(1 0 0 -1 0 841)" d="M71.42457 699.4202L72.23126 699.4202L122.0346 699.4202L122.8413 699.4202L122.0346 698.6135L72.23126 698.6135L71.42457 699.4202L72.23126 699.4202" stroke="none" fill="#FFFFFF" fill-rule="nonzero" /><path id="119" transform="matrix(1 0 0 -1 0 841)" d="M122.8413 699.4202L122.8413 698.6135L122.8413 672.9874L122.8413 672.1807L122.0346 672.9874L122.0346 698.6135L122.8413 699.4202L122.8413 698.6135" stroke="none" fill="#FFFFFF" fill-rule="nonzero" /><path id="120" transform="matrix(1 0 0 -1 0 841)" d="M122.8413 672.1807L122.0346 672.1807L72.23126 672.1807L71.42457 672.1807L72.23126 672.9874L122.0346 672.9874L122.8413 672.1807L122.0346 672.1807" stroke="none" fill="#FFFFFF" fill-rule="nonzero" /><g clip-path="url(#5)"><path id="126" transform="matrix(1 0 0 -1 0 841)" d="M124.3129 699.3918L221.0273 699.3918L221.0273 672.209L124.3129 672.209z" stroke="none" fill="#213280" fill-rule="nonzero" /></g><path id="127" transform="matrix(1 0 0 -1 0 841)" d="M124.2846 672.1807L124.2846 672.9874L124.2846 698.6135L124.2846 699.4202L125.0913 698.6135L125.0913 672.9874L124.2846 672.1807L124.2846 672.9874" stroke="none" fill="#FFFFFF" fill-rule="nonzero" /><path id="128" transform="matrix(1 0 0 -1 0 841)" d="M124.2846 699.4202L125.0913 699.4202L220.2489 699.4202L221.0556 699.4202L220.2489 698.6135L125.0913 698.6135L124.2846 699.4202L125.0913 699.4202" stroke="none" fill="#FFFFFF" fill-rule="nonzero" /><path id="129" transform="matrix(1 0 0 -1 0 841)" d="M221.0556 699.4202L221.0556 698.6135L221.0556 672.9874L221.0556 672.1807L220.2489 672.9874L220.2489 698.6135L221.0556 699.4202L221.0556 698.6135" stroke="none" fill="#FFFFFF" fill-rule="nonzero" /><path id="130" transform="matrix(1 0 0 -1 0 841)" d="M221.0556 672.1807L220.2489 672.1807L125.0913 672.1807L124.2846 672.1807L125.0913 672.9874L220.2489 672.9874L221.0556 672.1807L220.2489 672.1807" stroke="none" fill="#FFFFFF" fill-rule="nonzero" /><g clip-path="url(#6)"><path id="136" transform="matrix(1 0 0 -1 0 841)" d="M222.5272 699.3918L336.2495 699.3918L336.2495 672.209L222.5272 672.209z" stroke="none" fill="#213280" fill-rule="nonzero" /></g><path id="137" transform="matrix(1 0 0 -1 0 841)" d="M222.4989 672.1807L222.4989 672.9874L222.4989 698.6135L222.4989 699.4202L223.3056 698.6135L223.3056 672.9874L222.4989 672.1807L222.4989 672.9874" stroke="none" fill="#FFFFFF" fill-rule="nonzero" /><path id="138" transform="matrix(1 0 0 -1 0 841)" d="M222.4989 699.4202L223.3056 699.4202L335.4711 699.4202L336.2778 699.4202L335.4711 698.6135L223.3056 698.6135L222.4989 699.4202L223.3056 699.4202" stroke="none" fill="#FFFFFF" fill-rule="nonzero" /><path id="139" transform="matrix(1 0 0 -1 0 841)" d="M336.2778 699.4202L336.2778 698.6135L336.2778 672.9874L336.2778 672.1807L335.4711 672.9874L335.4711 698.6135L336.2778 699.4202L336.2778 698.6135" stroke="none" fill="#FFFFFF" fill-rule="nonzero" /><path id="140" transform="matrix(1 0 0 -1 0 841)" d="M336.2778 672.1807L335.4711 672.1807L223.3056 672.1807L222.4989 672.1807L223.3056 672.9874L335.4711 672.9874L336.2778 672.1807L335.4711 672.1807" stroke="none" fill="#FFFFFF" fill-rule="nonzero" /><g clip-path="url(#7)"><path id="152" transform="matrix(1 0 0 -1 0 841)" d="M337.7495 699.3918L369.2669 699.3918L369.2669 672.209L337.7495 672.209z" stroke="none" fill="#213280" fill-rule="nonzero" /></g><path id="153" transform="matrix(1 0 0 -1 0 841)" d="M337.7211 672.1807L337.7211 672.9874L337.7211 698.6135L337.7211 699.4202L338.5278 698.6135L338.5278 672.9874L337.7211 672.1807L337.7211 672.9874" stroke="none" fill="#FFFFFF" fill-rule="nonzero" /><path id="154" transform="matrix(1 0 0 -1 0 841)" d="M337.7211 699.4202L338.5278 699.4202L368.4886 699.4202L369.2953 699.4202L368.4886 698.6135L338.5278 698.6135L337.7211 699.4202L338.5278 699.4202" stroke="none" fill="#FFFFFF" fill-rule="nonzero" /><path id="155" transform="matrix(1 0 0 -1 0 841)" d="M369.2953 699.4202L369.2953 698.6135L369.2953 672.9874L369.2953 672.1807L368.4886 672.9874L368.4886 698.6135L369.2953 699.4202L369.2953 698.6135" stroke="none" fill="#FFFFFF" fill-rule="nonzero" /><path id="156" transform="matrix(1 0 0 -1 0 841)" d="M369.2953 672.1807L368.4886 672.1807L338.5278 672.1807L337.7211 672.1807L338.5278 672.9874L368.4886 672.9874L369.2953 672.1807L368.4886 672.1807" stroke="none" fill="#FFFFFF" fill-rule="nonzero" /><g clip-path="url(#8)"><path id="160" transform="matrix(1 0 0 -1 0 841)" d="M370.7669 699.3918L413.623 699.3918L413.623 672.209L370.7669 672.209z" stroke="none" fill="#213280" fill-rule="nonzero" /></g><path id="161" transform="matrix(1 0 0 -1 0 841)" d="M370.7386 672.1807L370.7386 672.9874L370.7386 698.6135L370.7386 699.4202L371.5453 698.6135L371.5453 672.9874L370.7386 672.1807L370.7386 672.9874" stroke="none" fill="#FFFFFF" fill-rule="nonzero" /><path id="162" transform="matrix(1 0 0 -1 0 841)" d="M370.7386 699.4202L371.5453 699.4202L412.8446 699.4202L413.6513 699.4202L412.8446 698.6135L371.5453 698.6135L370.7386 699.4202L371.5453 699.4202" stroke="none" fill="#FFFFFF" fill-rule="nonzero" /><path id="163" transform="matrix(1 0 0 -1 0 841)" d="M413.6513 699.4202L413.6513 698.6135L413.6513 672.9874L413.6513 672.1807L412.8446 672.9874L412.8446 698.6135L413.6513 699.4202L413.6513 698.6135" stroke="none" fill="#FFFFFF" fill-rule="nonzero" /><path id="164" transform="matrix(1 0 0 -1 0 841)" d="M413.6513 672.1807L412.8446 672.1807L371.5453 672.1807L370.7386 672.1807L371.5453 672.9874L412.8446 672.9874L413.6513 672.1807L412.8446 672.1807" stroke="none" fill="#FFFFFF" fill-rule="nonzero" /><g clip-path="url(#9)"><path id="169" transform="matrix(1 0 0 -1 0 841)" d="M415.123 699.3918L483.4908 699.3918L483.4908 672.209L415.123 672.209z" stroke="none" fill="#213280" fill-rule="nonzero" /></g><path id="170" transform="matrix(1 0 0 -1 0 841)" d="M415.0946 672.1807L415.0946 672.9874L415.0946 698.6135L415.0946 699.4202L415.9013 698.6135L415.9013 672.9874L415.0946 672.1807L415.0946 672.9874" stroke="none" fill="#FFFFFF" fill-rule="nonzero" /><path id="171" transform="matrix(1 0 0 -1 0 841)" d="M415.0946 699.4202L415.9013 699.4202L482.7125 699.4202L483.5192 699.4202L482.7125 698.6135L415.9013 698.6135L415.0946 699.4202L415.9013 699.4202" stroke="none" fill="#FFFFFF" fill-rule="nonzero" /><path id="172" transform="matrix(1 0 0 -1 0 841)" d="M483.5192 699.4202L483.5192 698.6135L483.5192 672.9874L483.5192 672.1807L482.7125 672.9874L482.7125 698.6135L483.5192 699.4202L483.5192 698.6135" stroke="none" fill="#FFFFFF" fill-rule="nonzero" /><path id="173" transform="matrix(1 0 0 -1 0 841)" d="M483.5192 672.1807L482.7125 672.1807L415.9013 672.1807L415.0946 672.1807L415.9013 672.9874L482.7125 672.9874L483.5192 672.1807L482.7125 672.1807" stroke="none" fill="#FFFFFF" fill-rule="nonzero" /><g clip-path="url(#10)"><path id="184" transform="matrix(1 0 0 -1 0 841)" d="M484.9909 699.3918L553.3588 699.3918L553.3588 672.209L484.9909 672.209z" stroke="none" fill="#213280" fill-rule="nonzero" /></g><path id="185" transform="matrix(1 0 0 -1 0 841)" d="M484.9625 672.1807L484.9625 672.9874L484.9625 698.6135L484.9625 699.4202L485.7692 698.6135L485.7692 672.9874L484.9625 672.1807L484.9625 672.9874" stroke="none" fill="#FFFFFF" fill-rule="nonzero" /><path id="186" transform="matrix(1 0 0 -1 0 841)" d="M484.9625 699.4202L485.7692 699.4202L552.5804 699.4202L553.3871 699.4202L552.5804 698.6135L485.7692 698.6135L484.9625 699.4202L485.7692 699.4202" stroke="none" fill="#FFFFFF" fill-rule="nonzero" /><path id="187" transform="matrix(1 0 0 -1 0 841)" d="M553.3871 699.4202L553.3871 698.6135L553.3871 672.9874L553.3871 672.1807L552.5804 672.9874L552.5804 698.6135L553.3871 699.4202L553.3871 698.6135" stroke="none" fill="#FFFFFF" fill-rule="nonzero" /><path id="188" transform="matrix(1 0 0 -1 0 841)" d="M553.3871 672.1807L552.5804 672.1807L485.7692 672.1807L484.9625 672.1807L485.7692 672.9874L552.5804 672.9874L553.3871 672.1807L552.5804 672.1807" stroke="none" fill="#FFFFFF" fill-rule="nonzero" /><g transform="matrix(0.1882205 0 0 0.1882205 31.43622 721.8882)"><g transform="matrix(1 0 0 1 0 0)"><image x="0" y="0" xlink:href="img_18.png" width="225" height="193" /></g></g><g transform="matrix(0.1427515 0 0 0.1427515 313.4665 724.8643)"><g transform="matrix(1 0 0 1 0 0)"><image x="0" y="0" xlink:href="img_12.png" width="267" height="259" /></g></g><g clip-path="url(#11)"><path id="470" transform="matrix(1 0 0 -1 0 841)" d="M36.93543 75.97152L557.3793 75.97152L557.3793 75.35371L36.93543 75.35371z" stroke="none" fill="#000000" fill-rule="nonzero" /></g><g transform="matrix(0.2276363 0 0 0.2276363 125.9818 178.0435)"><g transform="matrix(1 0 0 1 0 0)"><image x="0" y="0" xlink:href="img_19.png" width="430" height="430" /></g></g></g></g></svg>