<svg xmlns="http://www.w3.org/2000/svg" xmlns:xlink="http://www.w3.org/1999/xlink" id="body_1" preserveAspectRatio="xMinYMin meet" viewBox="0 0 793 1121"><defs><clipPath id="1"><path id="" clip-rule="evenodd" transform="matrix(1 0 0 1 0 0)" d="M0 841L0 -0.8900146L0 -0.8900146L595.276 -0.8900146L595.276 -0.8900146L595.276 841L595.276 841L0 841z" /></clipPath><clipPath id="2"><path id="" clip-rule="evenodd" transform="matrix(1 0 0 1 0 0)" d="M-19.76 263.77L595.71 263.77L595.71 263.77L595.71 851.89L595.71 851.89L-19.76 851.89z" /></clipPath><clipPath id="3"><path id="" clip-rule="evenodd" transform="matrix(1 0 0 1 0 0)" d="M288.03 407.72L288.65 407.72L288.65 407.72L288.65 490.03L288.65 490.03L288.03 490.03z" /></clipPath><clipPath id="4"><path id="" clip-rule="evenodd" transform="matrix(1 0 0 1 0 0)" d="M505.62 736.12L567.31 736.12L567.31 736.12L567.31 797.8L567.31 797.8L505.62 797.8z" /></clipPath><clipPath id="5"><path id="" clip-rule="evenodd" transform="matrix(1 0 0 1 0 0)" d="M325.75 738.47L326.36 738.47L326.36 738.47L326.36 803.05L326.36 803.05L325.75 803.05z" /></clipPath></defs><g transform="matrix(1.333333 0 0 1.333333 0 0)"><g clip-path="url(#1)"><g transform="matrix(0.2127021 0 0 0.2127021 392.4882 58.80762)"><g transform="matrix(1 0 0 1 0 0)"><image x="0" y="0" xlink:href="img_01.png" width="557" height="534" /></g></g><g clip-path="url(#2)"><g transform="matrix(0.75 0 0 0.75 90.2097 362.1425)"><g transform="matrix(1 0 0 1 0 0)"><image x="0" y="0" xlink:href="img_02.png" width="674" height="653" /></g></g></g><g transform="matrix(0.1358285 0 0 0.1358285 66.39556 419.9345)"><g transform="matrix(1 0 0 1 0 0)"><image x="0" y="0" xlink:href="img_03.png" width="1581" height="421" /></g></g><g clip-path="url(#3)"><path id="4" transform="matrix(1 0 0 -1 0 841)" d="M288.0328 433.2805L288.6479 433.2805L288.6479 350.9667L288.0328 350.9667z" stroke="none" fill="#BEECEC" fill-rule="nonzero" /></g><g clip-path="url(#4)"><path id="54" transform="matrix(1 0 0 -1 0 841)" d="M505.6209 104.8821L567.3066 104.8821L567.3066 43.19651L505.6209 43.19651z" stroke="none" fill="#000000" fill-rule="nonzero" /></g><g transform="matrix(0.2584687 0 0 0.2584687 505.706 736.2029)"><g transform="matrix(1 0 0 1 0 0)"><image x="0" y="0" xlink:href="img_04.png" width="238" height="238" /></g></g><g clip-path="url(#5)"><path id="187" transform="matrix(1 0 0 -1 0 841)" d="M325.7466 102.5337L326.3617 102.5337L326.3617 37.95293L325.7466 37.95293z" stroke="none" fill="#BEECEC" fill-rule="nonzero" /></g><g transform="matrix(0.7201876 0 0 0.7201877 234.0926 722.0297)"><g transform="matrix(1 0 0 1 0 0)"><image x="0" y="0" xlink:href="img_05.png" width="128" height="126" /></g></g></g></g></svg>