<svg xmlns="http://www.w3.org/2000/svg" xmlns:xlink="http://www.w3.org/1999/xlink" id="body_2" preserveAspectRatio="xMinYMin meet" viewBox="0 0 793 1121"><defs><clipPath id="1"><path id="" clip-rule="evenodd" transform="matrix(1 0 0 1 0 0)" d="M0 841L0 -0.8900146L0 -0.8900146L595.276 -0.8900146L595.276 -0.8900146L595.276 841L595.276 841L0 841z" /></clipPath><clipPath id="2"><path id="" clip-rule="evenodd" transform="matrix(1 0 0 1 0 0)" d="M411.46 -0.8900146L596.21 -0.8900146L596.21 -0.8900146L596.21 55.79999L596.21 55.79999L411.46 55.79999z" /></clipPath><clipPath id="3"><path id="" clip-rule="evenodd" transform="matrix(1 0 0 1 0 0)" d="M319.58 -0.8900146L411.96 -0.8900146L411.96 -0.8900146L411.96 55.79999L411.96 55.79999L319.58 55.79999z" /></clipPath><clipPath id="4"><path id="" clip-rule="evenodd" transform="matrix(1 0 0 1 0 0)" d="M209.93 78.47998L210.22 78.47998L210.22 78.47998L210.22 142.5L210.22 142.5L209.93 142.5z" /></clipPath><clipPath id="5"><path id="" clip-rule="evenodd" transform="matrix(1 0 0 1 0 0)" d="M76.62 274.07L77.19 274.07L77.19 274.07L77.19 344.94L77.19 344.94L76.62 344.94z" /></clipPath><clipPath id="6"><path id="" clip-rule="evenodd" transform="matrix(1 0 0 1 0 0)" d="M260.87 274.07L261.44 274.07L261.44 274.07L261.44 344.94L261.44 344.94L260.87 344.94z" /></clipPath><clipPath id="7"><path id="" clip-rule="evenodd" transform="matrix(1 0 0 1 0 0)" d="M76.62 452.65L77.19 452.65L77.19 452.65L77.19 523.52L77.19 523.52L76.62 523.52z" /></clipPath><clipPath id="8"><path id="" clip-rule="evenodd" transform="matrix(1 0 0 1 0 0)" d="M260.87 452.65L261.44 452.65L261.44 452.65L261.44 523.52L261.44 523.52L260.87 523.52z" /></clipPath><clipPath id="9"><path id="" clip-rule="evenodd" transform="matrix(1 0 0 1 0 0)" d="M76.62 642.57L77.19 642.57L77.19 642.57L77.19 713.44L77.19 713.44L76.62 713.44z" /></clipPath><clipPath id="10"><path id="" clip-rule="evenodd" transform="matrix(1 0 0 1 0 0)" d="M260.87 642.57L261.44 642.57L261.44 642.57L261.44 713.44L261.44 713.44L260.87 713.44z" /></clipPath><clipPath id="11"><path id="" clip-rule="evenodd" transform="matrix(1 0 0 1 0 0)" d="M411.46 796.11L596.21 796.11L596.21 796.11L596.21 852.81L596.21 852.81L411.46 852.81z" /></clipPath><clipPath id="12"><path id="" clip-rule="evenodd" transform="matrix(1 0 0 1 0 0)" d="M319.58 796.11L411.96 796.11L411.96 796.11L411.96 852.81L411.96 852.81L319.58 852.81z" /></clipPath></defs><g transform="matrix(1.333333 0 0 1.333333 0 0)"><g clip-path="url(#1)"><g clip-path="url(#2)"><path id="1" transform="matrix(1 0 0 -1 0 841)" d="M411.4568 841.89L596.2143 841.89L596.2143 785.1971L411.4568 785.1971z" stroke="none" fill="#213280" fill-rule="nonzero" /></g><g clip-path="url(#3)"><path id="2" transform="matrix(1 0 0 -1 0 841)" d="M319.5836 841.89L411.9623 841.89L411.9623 785.1971L319.5836 785.1971z" stroke="none" fill="#2A7EC4" fill-rule="nonzero" /></g><g transform="matrix(0.1003296 0 0 0.1003296 42.72378 83.86591)"><g transform="matrix(1 0 0 1 0 0)"><image x="0" y="0" xlink:href="img_03.png" width="1581" height="421" /></g></g><g clip-path="url(#4)"><path id="4" transform="matrix(1 0 0 -1 0 841)" d="M209.9339 762.5199L210.2173 762.5199L210.2173 698.4998L209.9339 698.4998z" stroke="none" fill="#000000" fill-rule="nonzero" /></g><g transform="matrix(0.2189983 0 0 0.2189983 383.7009 197.6202)"><g transform="matrix(1 0 0 1 0 0)"><image x="0" y="0" xlink:href="img_07.png" width="970" height="747" /></g></g><g transform="matrix(0.2189983 0 0 0.2189983 383.7009 381.8722)"><g transform="matrix(1 0 0 1 0 0)"><image x="0" y="0" xlink:href="img_08.png" width="970" height="726" /></g></g><g transform="matrix(0.2192243 0 0 0.2192243 383.7009 566.1241)"><g transform="matrix(1 0 0 1 0 0)"><image x="0" y="0" xlink:href="img_09.png" width="969" height="743" /></g></g><g transform="matrix(0.2309205 0 0 0.2309205 22.93228 288.3303)"><g transform="matrix(1 0 0 1 0 0)"><image x="0" y="0" xlink:href="img_10.png" width="220" height="198" /></g></g><g clip-path="url(#5)"><path id="174" transform="matrix(1 0 0 -1 0 841)" d="M76.62048 566.9294L77.18741 566.9294L77.18741 496.0632L76.62048 496.0632z" stroke="none" fill="#000000" fill-rule="nonzero" /></g><g transform="matrix(0.2721564 0 0 0.2721563 212.2645 281.2521)"><g transform="matrix(1 0 0 1 0 0)"><image x="0" y="0" xlink:href="img_11.png" width="168" height="202" /></g></g><g clip-path="url(#6)"><path id="288" transform="matrix(1 0 0 -1 0 841)" d="M260.8724 566.9294L261.4394 566.9294L261.4394 496.0632L260.8724 496.0632z" stroke="none" fill="#000000" fill-rule="nonzero" /></g><g transform="matrix(0.1902716 0 0 0.1902716 22.93228 464.0817)"><g transform="matrix(1 0 0 1 0 0)"><image x="0" y="0" xlink:href="img_12.png" width="267" height="259" /></g></g><g clip-path="url(#7)"><path id="390" transform="matrix(1 0 0 -1 0 841)" d="M76.62048 388.3467L77.18741 388.3467L77.18741 317.4805L76.62048 317.4805z" stroke="none" fill="#000000" fill-rule="nonzero" /></g><g transform="matrix(0.02893891 0 0 0.02893891 151.2334 461.2423)"><g transform="matrix(1 0 0 1 0 0)"><image x="0" y="0" xlink:href="img_13.png" width="311" height="265" /></g></g><g transform="matrix(0.255289 0 0 0.255289 207.1842 464.0817)"><g transform="matrix(1 0 0 1 0 0)"><image x="0" y="0" xlink:href="img_14.png" width="199" height="197" /></g></g><g clip-path="url(#8)"><path id="528" transform="matrix(1 0 0 -1 0 841)" d="M260.8724 388.3467L261.4394 388.3467L261.4394 317.4805L260.8724 317.4805z" stroke="none" fill="#000000" fill-rule="nonzero" /></g><g transform="matrix(0.2152649 0 0 0.2152649 22.93228 668.1594)"><g transform="matrix(1 0 0 1 0 0)"><image x="0" y="0" xlink:href="img_15.png" width="236" height="128" /></g></g><g clip-path="url(#9)"><path id="700" transform="matrix(1 0 0 -1 0 841)" d="M76.62048 198.4254L77.18741 198.4254L77.18741 127.5593L76.62048 127.5593z" stroke="none" fill="#000000" fill-rule="nonzero" /></g><g transform="matrix(0.2761007 0 0 0.2761007 207.1842 654.0029)"><g transform="matrix(1 0 0 1 0 0)"><image x="0" y="0" xlink:href="img_16.png" width="184" height="186" /></g></g><g clip-path="url(#10)"><path id="807" transform="matrix(1 0 0 -1 0 841)" d="M260.8724 198.4254L261.4394 198.4254L261.4394 127.5593L260.8724 127.5593z" stroke="none" fill="#000000" fill-rule="nonzero" /></g><g clip-path="url(#11)"><path id="977" transform="matrix(1 0 0 -1 0 841)" d="M411.4568 44.8866L596.2143 44.8866L596.2143 -11.80631L411.4568 -11.80631z" stroke="none" fill="#213280" fill-rule="nonzero" /></g><g clip-path="url(#12)"><path id="986" transform="matrix(1 0 0 -1 0 841)" d="M319.5836 44.8866L411.9623 44.8866L411.9623 -11.80631L319.5836 -11.80631z" stroke="none" fill="#2A7EC4" fill-rule="nonzero" /></g></g></g></svg>