<svg xmlns="http://www.w3.org/2000/svg" xmlns:xlink="http://www.w3.org/1999/xlink" id="body_4" preserveAspectRatio="xMinYMin meet" viewBox="0 0 793 1121"><defs><clipPath id="1"><path id="" clip-rule="evenodd" transform="matrix(1 0 0 1 0 0)" d="M0 841L0 -0.8900146L0 -0.8900146L595.276 -0.8900146L595.276 -0.8900146L595.276 841L595.276 841L0 841z" /></clipPath><clipPath id="2"><path id="" clip-rule="evenodd" transform="matrix(1 0 0 1 0 0)" d="M392.88 -12.22998L595.28 -12.22998L595.28 -12.22998L595.28 44.46002L595.28 44.46002L392.88 44.46002z" /></clipPath><clipPath id="3"><path id="" clip-rule="evenodd" transform="matrix(1 0 0 1 0 0)" d="M324.28 -12.22998L411.02 -12.22998L411.02 -12.22998L411.02 44.46002L411.02 44.46002L324.28 44.46002z" /></clipPath><clipPath id="4"><path id="" clip-rule="evenodd" transform="matrix(1 0 0 1 0 0)" d="M238.2 78.47998L238.48 78.47998L238.48 78.47998L238.48 140.35L238.48 140.35L238.2 140.35z" /></clipPath><clipPath id="5"><path id="" clip-rule="evenodd" transform="matrix(1 0 0 1 0 0)" d="M392.88 795.65L595.28 795.65L595.28 795.65L595.28 852.34L595.28 852.34L392.88 852.34z" /></clipPath><clipPath id="6"><path id="" clip-rule="evenodd" transform="matrix(1 0 0 1 0 0)" d="M324.28 795.65L411.02 795.65L411.02 795.65L411.02 852.34L411.02 852.34L324.28 852.34z" /></clipPath></defs><g transform="matrix(1.333333 0 0 1.333333 0 0)"><g clip-path="url(#1)"><g clip-path="url(#2)"><path id="1" transform="matrix(1 0 0 -1 0 841)" d="M392.8821 853.2286L595.276 853.2286L595.276 796.5356L392.8821 796.5356z" stroke="none" fill="#213280" fill-rule="nonzero" /></g><g clip-path="url(#3)"><path id="2" transform="matrix(1 0 0 -1 0 841)" d="M324.2838 853.2286L411.024 853.2286L411.024 796.5356L324.2838 796.5356z" stroke="none" fill="#2A7EC4" fill-rule="nonzero" /></g><g transform="matrix(0.1003296 0 0 0.1003296 70.9852 84.31946)"><g transform="matrix(1 0 0 1 0 0)"><image x="0" y="0" xlink:href="img_03.png" width="1581" height="421" /></g></g><g clip-path="url(#4)"><path id="4" transform="matrix(1 0 0 -1 0 841)" d="M238.1953 762.5199L238.4787 762.5199L238.4787 700.6523L238.1953 700.6523z" stroke="none" fill="#000000" fill-rule="nonzero" /></g><g transform="matrix(0.2189983 0 0 0.2189983 374.2587 206.1242)"><g transform="matrix(1 0 0 1 0 0)"><image x="0" y="0" xlink:href="img_07.png" width="970" height="747" /></g></g><g transform="matrix(0.2189983 0 0 0.2189983 374.2587 390.3761)"><g transform="matrix(1 0 0 1 0 0)"><image x="0" y="0" xlink:href="img_08.png" width="970" height="726" /></g></g><g transform="matrix(0.2192243 0 0 0.2192243 374.2587 574.6281)"><g transform="matrix(1 0 0 1 0 0)"><image x="0" y="0" xlink:href="img_09.png" width="969" height="743" /></g></g><g clip-path="url(#5)"><path id="1858" transform="matrix(1 0 0 -1 0 841)" d="M392.8821 45.35433L595.276 45.35433L595.276 -11.33858L392.8821 -11.33858z" stroke="none" fill="#213280" fill-rule="nonzero" /></g><g clip-path="url(#6)"><path id="1867" transform="matrix(1 0 0 -1 0 841)" d="M324.2838 45.35433L411.024 45.35433L411.024 -11.33858L324.2838 -11.33858z" stroke="none" fill="#2A7EC4" fill-rule="nonzero" /></g></g></g></svg>